HIERARCHY
ROOT Hips
{
  OFFSET 3.31837 97.133 111.615
  CHANNELS 6 Xposition Yposition Zposition Zrotation Xrotation Yrotation
  JOINT RightUpLeg
  {
    OFFSET -8.9458 -8.66707 0.101652
    CHANNELS 3 Zrotation Xrotation Yrotation
    JOINT RightLeg
    {
      OFFSET 0 -44.4227 1.3727
      CHANNELS 3 Zrotation Xrotation Yrotation
      JOINT RightFoot
      {
        OFFSET 0.253549 -42.0924 -1.46059
        CHANNELS 3 Zrotation Xrotation Yrotation
        JOINT RightToes
        {
          OFFSET 0.04 -4.41509 8.4991
          CHANNELS 3 Zrotation Xrotation Yrotation
          End Site
          {
            OFFSET -0.08 -0.137448 9.77979
          }
        }
      }
    }
  }
  JOINT LeftUpLeg
  {
    OFFSET 8.9458 -8.66707 0.101652
    CHANNELS 3 Zrotation Xrotation Yrotation
    JOINT LeftLeg
    {
      OFFSET 0 -44.4227 1.3727
      CHANNELS 3 Zrotation Xrotation Yrotation
      JOINT LeftFoot
      {
        OFFSET -0.253549 -42.0924 -1.46059
        CHANNELS 3 Zrotation Xrotation Yrotation
        JOINT LeftToes
        {
          OFFSET -0.04 -4.41509 8.4991
          CHANNELS 3 Zrotation Xrotation Yrotation
          End Site
          {
            OFFSET 0.08 -0.047448 9.77979
          }
        }
      }
    }
  }
  JOINT Spine
  {
    OFFSET 0 11.8905 0
    CHANNELS 3 Zrotation Xrotation Yrotation
    JOINT Spine1
    {
      OFFSET 0 25.6574 0.127663
      CHANNELS 3 Zrotation Xrotation Yrotation
      JOINT HEad
      {
        OFFSET 0 8.73416 0.011341
        CHANNELS 3 Zrotation Xrotation Yrotation
        End Site
        {
          OFFSET -0.29 12.7742 2.51395
        }
      }
      JOINT LeftShoulder1
      {
        OFFSET 8.99 -0.362252 -0.22
        CHANNELS 3 Zrotation Xrotation Yrotation
        JOINT LeftArm
        {
          OFFSET 10.2827 -0.00338 0.322123
          CHANNELS 3 Zrotation Xrotation Yrotation
          JOINT LeftForeArm
          {
            OFFSET 32.7669 0.099144 -1.42434
            CHANNELS 3 Zrotation Xrotation Yrotation
            JOINT LeftHand
            {
              OFFSET 27.5643 0.085362 1.02216
              CHANNELS 3 Zrotation Xrotation Yrotation
              End Site
              {
                OFFSET 16.7443 -0.6 1.50291
              }
            }
          }
        }
      }
      JOINT RightShoulder
      {
        OFFSET -8.99 -0.362252 -0.22
        CHANNELS 3 Zrotation Xrotation Yrotation
        JOINT RightArm
        {
          OFFSET -10.2827 -0.00338 0.322123
          CHANNELS 3 Zrotation Xrotation Yrotation
          JOINT RightForeArm
          {
            OFFSET -32.8971 0.099144 -1.42434
            CHANNELS 3 Zrotation Xrotation Yrotation
            JOINT RightHand
            {
              OFFSET -27.4921 0.085362 1.02216
              CHANNELS 3 Zrotation Xrotation Yrotation
              End Site
              {
                OFFSET -16.6312 -0.6 1.50291
              }
            }
          }
        }
      }
    }
  }
}
MOTION
Frames:	20
Frame Time:	0.0166667
-2.15172 94.8403 85.037 5.99797 -2.34869 132.405 -15.6878 -6.36273 5.70982 4.61574 37.4 -2.06225 4.48518 -2.25211 -0.348633 -14.0656 -22.7546 -5.66939 21.9064 -18.737 3.62249 2.89819 29.7448 -12.1514 -10.5873 -4.53485 0.302458 6.02239 -8.47212 -2.73699 -0.143404 4.93616 1.38098 0.641888 9.7234 2.83885 -5.63579 -5.43125 21.8378 -3.18055e-015 1.59028e-015 -3.18055e-015 -34.6779 -43.1034 -19.7457 51.2794 9.44345 -120.464 36.0234 20.5244 37.8883 14.3819 4.76188 24.8296 75.8718 -32.2643 49.6856 -12.6594 52.6956 138.262 -26.214 17.0036 -35.7842 
-1.63604 94.5721 85.6931 5.78331 -1.88804 131.753 -15.3159 -5.80989 5.80254 2.40963 36.929 0.342186 6.69889 -4.27283 -0.348641 -14.4875 -23.6458 -4.44058 22.0498 -18.2249 3.98731 2.78416 29.5184 -12.6696 -10.9478 -4.22142 0.340595 6.66849 -8.95994 -0.701795 -0.0914738 5.0532 1.81463 0.454248 9.98781 3.73515 -5.6235 -6.7742 20.9142 1.76556e-031 1.59028e-015 -6.36111e-015 -32.7333 -36.9279 -19.4174 54.247 -0.0186006 -120.824 30.912 20.4416 43.2063 14.2042 4.39678 23.0161 76.3546 -30.7219 49.8313 -12.6523 52.1202 138.824 -25.8729 17.0317 -36.3248 
-1.1237 94.2727 86.4492 5.53634 -1.64977 131.604 -14.7487 -5.23202 5.1088 0.596204 35.601 0.994528 6.85023 -1.88465 -0.480367 -20.0788 -30.0841 -9.25034 22.4103 -18.1179 4.00797 2.37311 28.9457 -10.9247 -9.95212 -2.27498 0.468011 7.9373 -11.2479 -3.20991 0.0574017 4.93201 2.02122 0.375021 9.7712 4.19335 -5.04738 -7.78138 20.6776 -3.18055e-015 -1.59028e-015 -0 -31.2149 -31.4344 -18.6937 53.0497 -7.36696 -121.637 27.634 19.6653 44.7336 14.8903 4.38634 22.1115 75.6276 -30.276 49.1059 -12.1675 51.7935 138.881 -25.7819 17.0574 -36.5496 
-0.515185 94.0138 87.2316 5.50928 -1.42038 131.338 -14.0738 -4.70995 4.05626 -0.648504 35.3259 1.62356 5.09721 -2.79761 -0.356969 -21.4524 -31.4544 -10.448 23.1133 -17.79 3.30777 1.49518 28.8617 -10.0058 -10.4952 -2.73775 0.45414 7.35881 -10.3457 -2.80538 0.155955 4.79056 2.27919 0.435142 9.50506 4.73195 -4.46467 -8.14977 19.8886 2.38542e-015 3.18055e-015 -0 -30.8936 -29.1726 -17.9269 46.7681 -9.05264 -124.499 28.8602 19.1139 40.9686 15.5111 4.43831 21.6688 74.9887 -30.5166 48.1711 -11.6553 51.8069 138.711 -25.8538 17.0782 -36.5493 
0.0447522 93.7371 88.1329 5.43319 -1.15687 131.13 -13.9682 -4.59519 4.16843 0.250293 35.7231 0.574483 3.99986 -5.68009 -0.228276 -20.2016 -29.9705 -10.0809 23.3594 -17.4879 2.91725 1.57491 28.6752 -10.5564 -10.8061 -3.65886 0.386132 6.37968 -8.67906 -1.25703 0.437681 4.5384 2.44969 0.844481 9.02974 5.07474 -4.51157 -7.70974 19.5081 7.95139e-016 0 3.18055e-015 -31.8484 -30.7111 -16.7344 37.2391 -4.37424 -128.578 33.2289 18.2222 33.111 15.4119 4.45303 21.8608 74.6921 -31.2881 46.9237 -11.3698 52.012 138.361 -26.0716 17.0769 -36.272 
0.506354 93.477 89.152 5.37333 -1.17451 131.134 -13.7443 -4.70262 3.43265 1.01625 35.8802 -0.259423 2.64568 -7.31802 -0.177455 -20.4696 -30.1597 -10.556 24.0376 -17.6093 1.84309 0.912837 28.4132 -9.67564 -10.7461 -3.7069 0.379784 5.82902 -7.80874 -0.554336 0.64707 4.39611 2.56104 1.45905 8.74588 5.2676 -4.84414 -6.91889 19.6593 7.95139e-016 -1.59028e-015 -6.36111e-015 -33.6203 -34.6681 -15.9559 28.5873 3.31393 -131.439 36.9197 16.5988 25.1403 14.8842 4.34219 21.877 74.9732 -31.656 46.256 -11.3231 52.1125 137.977 -26.3395 17.0518 -35.8374 
0.99171 93.3163 90.1787 5.59436 -0.574947 131.503 -13.8307 -3.95531 1.88143 1.30478 35.5816 -1.18371 -0.115924 -6.13315 -0.160128 -23.2664 -33.6137 -10.8194 23.7982 -16.6356 1.44583 1.61023 26.4706 -9.30022 -10.2765 -0.814651 0.605508 7.89849 -10.8799 -1.88443 0.879535 4.60981 2.48863 1.38417 9.21682 5.16239 -4.5327 -6.41561 18.7601 -7.95139e-016 -2.38542e-015 3.18055e-015 -35.2395 -37.8881 -15.8881 23.5742 8.32362 -132.76 38.4203 15.4157 20.7653 15.1109 4.27711 21.259 75.1534 -30.9712 46.2507 -11.275 51.8565 137.721 -26.5601 17.0241 -35.4563 
1.37153 93.2771 91.3009 5.76622 -0.344337 131.558 -13.329 -3.7292 0.888571 1.01259 35.4737 -0.467846 -0.561241 -5.6982 -0.149146 -24.6737 -34.917 -11.9351 23.9052 -16.14 1.36898 2.28728 25.5261 -10.1792 -10.3116 -1.45557 0.553868 6.1039 -8.17011 -0.520882 1.09718 4.70878 2.25236 1.69387 9.42261 4.71392 -5.41123 -6.39717 19.0387 1.32417e-031 -7.95139e-016 9.54166e-015 -36.2136 -39.1111 -14.8417 22.4667 8.26988 -133.639 38.7807 15.2526 20.1201 14.5891 4.22813 21.5962 75.8609 -30.5268 46.2909 -11.2339 52.0793 137.329 -26.9044 17.0149 -35.0142 
1.69603 93.2565 92.4942 5.76209 -0.188061 131.919 -13.6262 -3.91941 0.47232 2.45958 35.5863 -1.80308 -1.11679 -5.27784 -0.13269 -26.7586 -37.9586 -10.79 24.028 -15.9838 0.481004 2.33597 24.4791 -10.7719 -9.73132 -1.63591 0.507955 4.47261 -5.61882 2.15376 1.11658 4.81969 2.42298 1.75182 9.6443 5.04849 -5.48942 -6.38629 17.9561 -7.95139e-016 0 1.59028e-014 -37.7271 -37.4514 -16.2845 25.0264 4.08443 -134.189 38.529 16.2767 23.26 15.0747 4.13534 20.5286 75.2017 -29.8631 45.9207 -10.9258 51.6468 137.547 -26.9176 17.0424 -35.1131 
2.17046 93.3155 93.7058 5.75063 -0.050421 132.728 -13.6446 -3.87706 -0.0376908 3.97496 35.9678 -1.3821 0.0558044 -6.44087 -0.16431 -26.6035 -37.2452 -11.9707 24.2491 -15.8085 0.0659617 2.23151 22.6883 -11.1301 -9.04045 -0.0739739 0.584937 4.07021 -4.93704 3.52191 1.35553 4.88775 2.10421 2.19901 9.78604 4.39899 -5.99224 -6.19333 17.5608 7.95139e-016 -1.59028e-015 -0 -38.2921 -34.7734 -16.4733 29.5465 -2.64718 -133.636 37.4883 17.6885 28.0942 14.625 4.05724 20.6023 75.4385 -29.6895 45.9212 -10.642 51.9748 137.436 -27.0899 17.066 -35.0125 
2.48484 93.4136 95.0372 5.18738 0.169782 133.745 -14.2996 -4.34763 -0.814692 5.64255 35.7701 -3.95931 -1.70959 -2.54537 -0.0615292 -31.8901 -42.2497 -14.428 23.56 -16.2909 0.0172061 3.45995 21.082 -11.4899 -10.2498 0.383064 0.703597 2.1817 -2.7016 2.165 1.25844 4.8397 1.82523 2.20888 9.65943 3.81438 -5.5708 -5.6748 17.0505 1.59028e-015 -1.59028e-015 3.18055e-015 -38.407 -31.8364 -17.0861 34.994 -8.64224 -131.671 35.962 19.0141 33.2988 15.0904 4.13366 20.5021 74.6313 -29.5547 45.572 -10.2297 51.9742 137.367 -27.1764 17.0703 -34.9307 
2.77982 93.5281 96.336 4.56418 0.197736 134.465 -14.4613 -5.11476 -1.3088 6.51451 35.6716 -6.22678 -3.39128 0.504017 0.123789 -36.5033 -45.9673 -16.9548 23.2016 -16.6657 -0.32607 3.78075 19.1505 -11.8401 -9.72213 2.4003 0.824619 1.3014 -1.51587 3.23343 1.12827 4.77133 1.59858 2.24739 9.49078 3.30421 -5.56145 -5.20857 17.2339 1.59028e-015 -7.95139e-016 3.18055e-015 -38.2857 -30.8343 -17.6316 40.0667 -11.2127 -129.086 34.9374 19.9474 37.1426 15.5913 4.295 20.8186 73.9742 -29.7476 45.506 -9.89337 52.1161 137.052 -27.3406 17.0426 -34.6305 
2.93401 93.8463 97.6864 4.13026 0.0236641 135.19 -13.8349 -5.97211 -2.24787 6.11193 35.8792 -6.60088 -3.38126 0.725103 0.131008 -36.4798 -46.3116 -16.2821 23.4758 -17.3931 -1.35926 3.09967 17.9465 -11.0537 -10.2335 2.84355 0.906511 -1.16222 1.56284 4.41267 1.1379 4.756 1.45464 2.6215 9.40618 3.00962 -5.8337 -4.8939 16.9974 -7.95139e-016 -4.77083e-015 -9.54166e-015 -38.6522 -31.7469 -18.729 44.3346 -10.086 -126.778 34.844 20.5769 39.2163 15.4417 4.24946 20.74 74.1862 -29.8963 45.6944 -9.8811 52.4017 136.918 -27.3924 17.007 -34.4264 
3.21203 94.2798 98.9884 3.64095 -0.015065 136.022 -13.4788 -6.25987 -2.70686 6.52778 35.3051 -7.29297 -4.71774 0.889743 0.236884 -36.024 -45.7353 -16.4427 23.2675 -17.9447 -1.1773 3.30894 16.4576 -11.5779 -12.0409 2.80996 1.0701 -4.2841 5.1966 7.25289 1.0958 4.69047 1.09079 2.70528 9.23521 2.2841 -5.72251 -4.40606 17.0877 4.41391e-032 -7.95139e-016 3.18055e-015 -38.2654 -33.3341 -19.2153 48.5952 -7.77268 -124.645 35.2296 20.9648 40.0292 16.2849 4.55355 21.4097 73.5489 -30.1534 45.7981 -9.75526 52.5403 136.375 -27.5812 16.9549 -34.0043 
3.33319 94.6768 100.155 3.21869 -0.126084 136.742 -12.819 -6.77368 -3.09708 6.11655 34.9705 -7.47953 -5.50232 0.988073 0.300961 -35.4047 -44.9714 -16.6283 23.0877 -18.4745 -1.00797 3.27038 14.8666 -9.85709 -12.3339 4.78655 1.29701 -5.50132 6.70692 6.03373 1.39454 4.6698 0.981822 3.1675 9.21462 2.0255 -6.17529 -4.40298 16.8218 -0 -1.59028e-015 -0 -38.5958 -33.8031 -21.0071 54.0938 -6.32826 -122.677 35.3866 21.2524 40.7527 16.1196 4.48222 21.2225 73.8472 -30.1114 46.2278 -9.89882 52.7697 136.217 -27.7449 16.9519 -33.8138 
3.49361 95.0878 101.156 2.96256 -0.0603489 137.727 -12.4257 -6.76404 -3.76735 5.97415 34.5623 -7.43268 -5.75791 0.0209852 0.265611 -33.5006 -43.5175 -15.4588 22.7312 -18.6728 -0.377777 3.20611 13.5364 -8.52257 -11.957 7.87498 1.55762 -2.7974 3.67276 0.632233 1.89102 4.68489 0.721128 3.75496 9.29907 1.45771 -6.69742 -3.90783 16.8363 1.59028e-015 -7.95139e-016 -9.54166e-015 -38.3811 -31.9803 -22.7442 61.0889 -7.73037 -120.474 34.913 21.435 41.8199 15.8288 4.44176 21.3309 74.0776 -30.1208 46.6563 -9.99725 53.0231 135.962 -28.1564 16.9782 -33.4789 
3.49357 95.5636 102.096 2.63289 -0.0833725 138.3 -12.0612 -7.04148 -4.23572 5.62851 34.0703 -7.28259 -5.37236 -0.559783 0.208719 -31.6994 -42.2408 -14.0172 22.0989 -19.9004 -0.580812 3.12831 15.8375 -10.8617 -13.2388 3.88917 1.29836 -4.68892 5.82504 4.90018 1.74483 4.8186 0.413177 3.88186 9.49944 0.834601 -6.98148 -4.04947 17.6838 -2.38542e-015 -7.95139e-016 6.36111e-015 -36.7927 -27.6994 -23.7256 68.142 -11.746 -117.454 33.5481 21.3337 43.0266 16.1619 4.5797 21.6787 74.254 -29.6289 47.4279 -10.0506 53.213 135.613 -28.7819 17.0061 -32.9401 
3.35185 95.9358 102.971 2.61487 -0.188526 138.334 -11.6343 -7.3751 -3.45911 6.32714 33.7233 -7.83571 -5.48015 -2.12127 0.130674 -28.6693 -39.7483 -11.913 22.1793 -20.5244 -0.17755 2.30013 17.2435 -9.85968 -12.9801 4.95297 1.38559 -2.64587 3.45633 1.29832 2.08884 4.96699 0.522149 4.19507 9.84299 1.0289 -7.10499 -3.60289 17.0823 -1.59028e-015 4.77083e-015 -3.18055e-015 -35.9277 -21.5692 -25.6546 72.8593 -15.5133 -114.59 31.1193 20.8822 44.471 16.7303 4.57796 21.0579 73.6284 -28.75 47.6952 -10.2137 52.7085 135.833 -29.2249 17.0428 -32.6369 
3.36974 96.3773 103.771 2.29853 0.188409 138.124 -11.6377 -7.47078 -4.07876 5.61028 33.3849 -6.39186 -5.18302 -3.36389 0.0518671 -26.4452 -37.9931 -9.85796 21.3538 -21.236 -0.414846 1.99111 20.8956 -11.3594 -15.1579 -1.53593 0.809596 -5.88335 7.27991 4.73972 1.94077 5.08145 0.771458 4.17049 10.0448 1.52508 -7.31003 -3.53282 16.539 7.95139e-016 -1.59028e-015 -3.18055e-015 -35.7421 -15.4664 -27.3224 73.8107 -17.5508 -112.882 28.5093 20.3488 46.0813 17.0297 4.57077 20.7119 73.2246 -28.4765 47.3783 -10.7499 51.9658 136.499 -29.4089 17.0821 -32.6057 
3.30817 96.8024 104.518 2.14556 0.253628 137.711 -11.1381 -7.65176 -4.79509 4.3982 32.7643 -4.7783 -4.75878 -3.92046 0.00905176 -24.886 -36.59 -8.57956 20.7625 -21.6297 0.288982 1.86225 23.4968 -12.3082 -16.3713 -4.85596 0.418584 -6.17751 7.45783 6.51621 2.14633 5.10347 0.847158 4.57383 10.0851 1.66294 -7.93447 -2.93543 16.7762 7.95139e-016 2.38542e-015 1.90833e-014 -37.1894 -11.6736 -27.7307 71.1582 -17.596 -112.884 26.9976 20.1074 47.4037 16.7542 4.5766 21.026 73.1717 -28.4696 47.0191 -11.5875 51.2204 137.253 -29.2535 17.1216 -32.9123 
